<svg width="188" height="42" viewBox="0 0 188 42" fill="none" xmlns="http://www.w3.org/2000/svg">
<path fill-rule="evenodd" clip-rule="evenodd" d="M64.111 16.8109C64.1391 19.9749 62.0576 21.8018 60.0597 22.4755L65.1701 30.7443C65.1875 30.7722 65.1883 30.8074 65.1724 30.836C65.1562 30.8647 65.126 30.8825 65.0932 30.8825H60.5276C60.4957 30.8825 60.4662 30.8658 60.4498 30.8382L55.6628 22.791H53.4392V30.7919C53.4392 30.842 53.3987 30.8825 53.3487 30.8825H49.4156C49.3655 30.8825 49.325 30.842 49.325 30.7919V11.1413C49.325 11.0912 49.3655 11.0509 49.4156 11.0509H57.0347C61.598 11.0509 64.111 13.0964 64.111 16.8109ZM53.4392 19.3075H56.8418C58.9464 19.3075 59.9695 18.4909 59.9695 16.8109C59.9695 15.7472 59.4317 14.4793 56.8693 14.4793H53.4392V19.3075Z" fill="white"/>
<path fill-rule="evenodd" clip-rule="evenodd" d="M65.792 23.6023C65.792 19.3624 68.7334 16.285 72.786 16.285C76.953 16.285 79.7526 19.2254 79.7526 23.6023C79.7526 27.8575 76.8227 30.9461 72.786 30.9461C68.6028 30.9461 65.792 27.9949 65.792 23.6023ZM69.5485 23.6023C69.5485 26.0538 70.7889 27.5768 72.786 27.5768C74.766 27.5768 75.9961 26.0538 75.9961 23.6023C75.9961 21.1832 74.766 19.6806 72.786 19.6806C70.7889 19.6806 69.5485 21.1832 69.5485 23.6023Z" fill="white"/>
<path d="M88.1915 19.6806C89.699 19.6806 90.6129 20.3896 90.9084 21.7876C90.9173 21.8294 90.9541 21.8594 90.9969 21.8594H94.4898C94.5152 21.8594 94.5392 21.8489 94.5566 21.8303C94.5735 21.8116 94.5822 21.7868 94.5799 21.7616C94.2952 18.2809 91.9966 16.2848 88.274 16.2848C86.1666 16.2848 84.3957 17.0222 83.1526 18.4175C81.9635 19.7518 81.3349 21.5816 81.3349 23.7085C81.3349 28.1729 83.941 30.9461 88.1363 30.9461C91.8492 30.9461 94.1976 28.98 94.5797 25.5517C94.5826 25.5263 94.5744 25.5006 94.5574 25.4814C94.5402 25.4621 94.5156 25.4511 94.4898 25.4511H90.9969C90.9537 25.4511 90.9167 25.4818 90.9082 25.524C90.633 26.9065 89.7522 27.5503 88.1363 27.5503C85.4868 27.5503 85.0913 25.11 85.0913 23.6553C85.0913 21.7338 85.9057 19.6806 88.1915 19.6806Z" fill="white"/>
<path fill-rule="evenodd" clip-rule="evenodd" d="M109.205 23.6554C109.205 19.2468 111.983 16.2849 116.117 16.2849C120.176 16.2849 122.698 19.0277 122.698 23.4427C122.698 23.9241 122.67 24.3309 122.643 24.7244C122.64 24.7718 122.6 24.8086 122.553 24.8086H112.999C113.209 26.7336 114.248 27.7097 116.089 27.7097C117.481 27.7097 118.237 27.2508 118.617 26.1758C118.63 26.1396 118.664 26.1156 118.702 26.1156H122.168C122.194 26.1156 122.219 26.127 122.236 26.147C122.254 26.1669 122.261 26.1934 122.257 26.2192C121.842 29.0024 119.328 30.946 116.144 30.946C111.799 30.946 109.205 28.2205 109.205 23.6554ZM116.062 19.5745C114.47 19.5745 113.481 20.3535 113.122 21.891H118.895C118.577 20.3537 117.624 19.5745 116.062 19.5745Z" fill="white"/>
<path d="M133.823 16.2849H130.613V12.7552C130.613 12.7052 130.572 12.6648 130.523 12.6648H126.947C126.897 12.6648 126.856 12.7052 126.856 12.7552V16.2849H124.417C124.367 16.2849 124.326 16.3254 124.326 16.3753V19.5696C124.326 19.6197 124.367 19.66 124.417 19.66H126.856V27.1153C126.856 30.2947 128.663 30.946 131.375 30.946H133.823C133.873 30.946 133.913 30.9057 133.913 30.8556V27.7159C133.913 27.6661 133.873 27.6255 133.823 27.6255H132.008C130.926 27.6255 130.613 27.3336 130.613 26.3237V19.66H133.823C133.873 19.66 133.913 19.6197 133.913 19.5696V16.3753C133.913 16.3254 133.873 16.2849 133.823 16.2849Z" fill="white"/>
<path d="M144.104 22.4535C144.104 22.4535 144.104 22.4533 144.103 22.4531L141.079 21.4972C139.952 21.1159 139.738 20.813 139.738 20.3872C139.738 19.9472 139.931 19.3618 141.601 19.3618C142.897 19.3618 143.686 19.8952 143.71 20.7882C143.712 20.8372 143.752 20.8763 143.801 20.8763H147.294C147.318 20.8763 147.341 20.8666 147.358 20.8494C147.375 20.8325 147.384 20.8091 147.384 20.7851C147.371 19.2143 146.778 18.0282 145.621 17.2598C144.661 16.6219 143.299 16.2849 141.683 16.2849C138.911 16.2849 135.928 17.439 135.872 20.6796C135.872 23.2016 137.726 24.0996 139.538 24.6452L141.847 25.3621C143.52 25.9099 143.958 26.0792 143.958 26.7108C143.958 27.4219 143.562 27.8957 141.628 27.8957C140.08 27.8957 139.29 27.3323 139.215 26.1735C139.212 26.1259 139.173 26.0889 139.125 26.0889H135.632C135.582 26.0889 135.541 26.1294 135.541 26.1793C135.541 30.119 138.866 30.946 141.656 30.946C142.814 30.946 144.473 30.7707 145.802 29.9359C147.071 29.1387 147.714 27.9464 147.714 26.392C147.714 24.1134 146.271 23.1696 144.104 22.4535Z" fill="white"/>
<path fill-rule="evenodd" clip-rule="evenodd" d="M149.001 23.6554C149.001 19.2468 151.778 16.2849 155.912 16.2849C159.972 16.2849 162.494 19.0277 162.494 23.4427C162.494 23.9241 162.466 24.3309 162.438 24.7244C162.435 24.7718 162.395 24.8086 162.348 24.8086H152.794C153.004 26.7336 154.044 27.7097 155.885 27.7097C157.277 27.7097 158.033 27.2508 158.412 26.1758C158.425 26.1396 158.459 26.1156 158.498 26.1156H161.963C161.989 26.1156 162.014 26.127 162.032 26.147C162.049 26.1669 162.057 26.1934 162.053 26.2192C161.637 29.0024 159.123 30.946 155.94 30.946C151.595 30.946 149.001 28.2205 149.001 23.6554ZM155.857 19.5745C154.265 19.5745 153.277 20.3535 152.917 21.891H158.69C158.372 20.3537 157.42 19.5745 155.857 19.5745Z" fill="white"/>
<path fill-rule="evenodd" clip-rule="evenodd" d="M177.346 27.9762H177.676C177.726 27.9762 177.767 28.0168 177.767 28.0667V30.8707C177.767 30.9208 177.726 30.9613 177.676 30.9613H174.953C174.068 30.9613 173.172 30.2591 173.106 28.9145C172.172 30.2207 170.695 30.8825 168.71 30.8825C165.957 30.8825 164.108 29.2302 164.108 26.7711C164.108 24.3595 165.771 22.8433 169.051 22.2644L171.415 21.8149C172.564 21.6307 172.827 21.43 172.827 20.74C172.827 19.9114 172.029 19.4548 170.58 19.4548C169.052 19.4548 168.277 19.9228 168.277 20.8458C168.277 20.8958 168.237 20.9362 168.187 20.9362H164.694C164.644 20.9362 164.603 20.8958 164.603 20.8458C164.603 18.075 166.982 16.2849 170.662 16.2849C174.665 16.2849 176.611 18.0191 176.611 21.5867V27.2202C176.611 27.729 176.852 27.9762 177.346 27.9762ZM169.672 27.9504C171.457 27.9504 172.855 26.5261 172.855 24.7079V24.2287C172.636 24.3353 172.34 24.4127 172.108 24.4532L170.048 24.8759C168.576 25.1937 167.975 25.6739 167.975 26.5331C167.975 27.7046 168.898 27.9504 169.672 27.9504Z" fill="white"/>
<path d="M187.732 19.6601C187.782 19.6601 187.822 19.6195 187.822 19.5696V16.3754C187.822 16.3253 187.782 16.285 187.732 16.285H184.522V12.7553C184.522 12.7052 184.481 12.6649 184.431 12.6649H180.855C180.805 12.6649 180.765 12.7052 180.765 12.7553V16.285H178.325C178.275 16.285 178.235 16.3253 178.235 16.3754V19.5696C178.235 19.6195 178.275 19.6601 178.325 19.6601H180.765V27.1154C180.765 30.2945 182.571 30.9461 185.284 30.9461H187.732C187.782 30.9461 187.822 30.9057 187.822 30.8556V27.716C187.822 27.6661 187.782 27.6256 187.732 27.6256H185.916C184.834 27.6256 184.522 27.3336 184.522 26.3238V19.6601H187.732Z" fill="white"/>
<path d="M103.926 22.031L109.608 16.44C109.634 16.4141 109.642 16.375 109.629 16.3411C109.615 16.307 109.581 16.2848 109.545 16.2848H105.065C105.041 16.2848 105.019 16.2939 105.002 16.3105L99.965 21.199V16.3754C99.965 16.3254 99.9242 16.2848 99.8744 16.2848H96.2988C96.2488 16.2848 96.2083 16.3254 96.2083 16.3754V30.8555C96.2083 30.9056 96.2488 30.9461 96.2988 30.9461H99.8744C99.9242 30.9461 99.965 30.9056 99.965 30.8555V25.9512L101.236 24.7008L105.465 30.9066C105.482 30.9312 105.51 30.9461 105.54 30.9461H109.996C110.03 30.9461 110.061 30.9273 110.076 30.8973C110.092 30.8673 110.089 30.8313 110.07 30.8036L103.926 22.031Z" fill="white"/>
<path d="M16.6917 27.4024C15.6411 26.7585 11.208 24.0525 11.208 24.0525C11.208 24.0525 6.77704 21.3422 5.72501 20.701C5.62453 20.6398 5.49612 20.7089 5.49054 20.8264C5.47896 21.072 5.4618 21.4314 5.4525 21.6321C5.44815 21.7295 5.47297 21.8249 5.52486 21.9074C5.75665 22.2765 6.4396 23.3638 6.78365 23.9123C6.9133 24.1192 6.95196 24.3701 6.89055 24.6064L6.00125 28.0295C5.96569 28.1669 6.01428 28.3115 6.12552 28.3998C6.58392 28.7638 7.15046 29.1641 7.83361 29.5814C8.51635 29.999 9.13127 30.3205 9.66411 30.5621C9.79334 30.6207 9.94427 30.5979 10.0499 30.5036L12.6872 28.1487C12.8694 27.9861 13.1101 27.9058 13.3532 27.9269C13.9977 27.9825 15.2755 28.0936 15.7099 28.1315C15.8073 28.14 15.9041 28.1185 15.9887 28.0698C16.163 27.9699 16.4746 27.7907 16.6873 27.6685C16.7893 27.6099 16.7919 27.4638 16.6917 27.4024Z" fill="white"/>
<path d="M9.2485 31.7726C9.20302 31.496 9.02706 31.2579 8.77625 31.1329C8.07366 30.7824 7.51498 30.4472 7.36218 30.3539C7.20938 30.2606 6.65608 29.9163 6.02358 29.4508C5.798 29.2847 5.50584 29.2369 5.23911 29.3228L5.08652 29.3718C4.02684 29.7132 3.21033 30.5648 2.91424 31.6386C2.18849 34.2705 0.822183 39.2261 0.207882 41.4539C0.117525 41.7812 0.511621 42.0219 0.761187 41.7922C2.46142 40.2279 6.24317 36.7481 8.25148 34.8999C9.07089 34.1459 9.45506 33.0301 9.27435 31.9311L9.2485 31.7726Z" fill="white"/>
<path d="M35.0351 1.88497C35.3562 1.45939 35.1637 1.13704 35.0202 1.00504C35.0202 1.00504 35.02 1.00484 35.0198 1.00463C34.8684 0.885872 34.6844 0.801251 34.4727 0.769182L29.8196 0.0634577C29.3879 -0.00192158 28.9557 0.177251 28.6967 0.528768L26.1576 3.97298C25.767 4.50263 25.9008 5.2007 26.3557 5.57601C26.3887 5.60373 26.3978 5.65215 26.3749 5.69001C26.3557 5.72125 26.3191 5.73635 26.2849 5.73118L25.0044 5.53691L23.2405 5.26939C22.7497 5.19511 22.2582 5.39849 21.9635 5.79842L14.5417 15.8666C14.4451 15.9976 14.2648 16.0334 14.1257 15.9494L6.98109 11.6317C6.50863 11.3461 5.89206 11.505 5.61727 11.9879C5.34951 12.4584 5.53973 13.0607 6.00268 13.3406L6.18732 13.4521C6.27871 13.5072 6.32792 13.6119 6.312 13.7176L6.0951 15.1564C6.07443 15.2946 5.91997 15.367 5.80067 15.2948C5.80067 15.2948 4.78152 14.6886 4.75547 14.6726C3.91042 14.155 2.80587 14.4208 2.28855 15.2664C1.82787 16.0195 1.98936 16.9773 2.62661 17.5437C2.64625 17.5615 2.8311 17.7039 2.87886 17.733C2.8799 17.7337 2.88093 17.7345 2.88196 17.7349C2.88217 17.7351 2.88238 17.7353 2.88238 17.7353L8.21962 21.0049C11.1046 22.7484 13.2976 21.3188 13.9822 20.8061C14.5899 20.3509 15.2803 19.8484 16.4319 20.5481C16.8446 20.799 17.3657 20.7897 17.7813 20.5433L19.11 19.7557C19.502 19.5233 19.9902 19.5254 20.3805 19.761L24.4276 22.207C24.5866 22.303 24.7925 22.2622 24.9029 22.1126L34.7948 8.71442C35.6016 7.63773 35.0045 7.11408 34.513 6.98539C34.4813 6.97815 34.4505 6.96925 34.4179 6.96429L32.0454 6.6047C32.0105 6.59911 31.9753 6.58422 31.9431 6.56456C31.8116 6.48429 31.7702 6.31173 31.8507 6.17994C32.6548 5.09311 35.0351 1.88497 35.0351 1.88497Z" fill="white"/>
</svg>
